<?xml version="1.0" encoding="UTF-8"?>
<!DOCTYPE svg PUBLIC "-//W3C//DTD SVG 1.1//EN" "http://www.w3.org/Graphics/SVG/1.1/DTD/svg11.dtd">
<svg xmlns="http://www.w3.org/2000/svg" version="1.1" width="994px" height="999px" style="shape-rendering:geometricPrecision; text-rendering:geometricPrecision; image-rendering:optimizeQuality; fill-rule:evenodd; clip-rule:evenodd" xmlns:xlink="http://www.w3.org/1999/xlink">
<g><path style="opacity:1" fill="#e4e6eb" d="M -0.5,-0.5 C 330.833,-0.5 662.167,-0.5 993.5,-0.5C 993.5,0.166667 993.5,0.833333 993.5,1.5C 662.5,1.5 331.5,1.5 0.5,1.5C 0.5,333.833 0.5,666.167 0.5,998.5C 0.166667,998.5 -0.166667,998.5 -0.5,998.5C -0.5,665.5 -0.5,332.5 -0.5,-0.5 Z"/></g>
<g><path style="opacity:1" fill="#fefefe" d="M 993.5,1.5 C 993.5,333.833 993.5,666.167 993.5,998.5C 662.5,998.5 331.5,998.5 0.5,998.5C 0.5,666.167 0.5,333.833 0.5,1.5C 331.5,1.5 662.5,1.5 993.5,1.5 Z"/></g>
<g><path style="opacity:1" fill="#878787" d="M 861.5,221.5 C 846.862,220.567 832.196,220.234 817.5,220.5C 816.5,220.5 815.5,220.5 814.5,220.5C 802.833,220.5 791.167,220.5 779.5,220.5C 778.5,220.5 777.5,220.5 776.5,220.5C 740.5,220.5 704.5,220.5 668.5,220.5C 667.5,220.5 666.5,220.5 665.5,220.5C 653.833,220.5 642.167,220.5 630.5,220.5C 629.5,220.5 628.5,220.5 627.5,220.5C 591.5,220.5 555.5,220.5 519.5,220.5C 518.5,220.5 517.5,220.5 516.5,220.5C 504.833,220.5 493.167,220.5 481.5,220.5C 480.833,220.5 480.167,220.5 479.5,220.5C 443.167,220.5 406.833,220.5 370.5,220.5C 369.5,220.5 368.5,220.5 367.5,220.5C 355.833,220.5 344.167,220.5 332.5,220.5C 331.5,220.5 330.5,220.5 329.5,220.5C 293.5,220.5 257.5,220.5 221.5,220.5C 220.5,220.5 219.5,220.5 218.5,220.5C 206.833,220.5 195.167,220.5 183.5,220.5C 182.833,220.5 182.167,220.5 181.5,220.5C 167.829,220.333 154.163,220.5 140.5,221C 138.846,221.608 137.179,222.108 135.5,222.5C 136.058,221.21 137.058,220.377 138.5,220C 378.5,219.333 618.5,219.333 858.5,220C 859.737,220.232 860.737,220.732 861.5,221.5 Z"/></g>
<g><path style="opacity:1" fill="#020202" d="M 181.5,220.5 C 163.5,239.167 145.167,257.5 126.5,275.5C 126.333,261.163 126.5,246.829 127,232.5C 128.254,227.751 131.088,224.418 135.5,222.5C 137.179,222.108 138.846,221.608 140.5,221C 154.163,220.5 167.829,220.333 181.5,220.5 Z"/></g>
<g><path style="opacity:1" fill="#000000" d="M 183.5,220.5 C 195.167,220.5 206.833,220.5 218.5,220.5C 229.5,231.833 240.5,243.167 251.5,254.5C 221.329,254.169 191.329,254.502 161.5,255.5C 160.668,272.995 160.168,290.662 160,308.5C 149.319,297.986 138.819,287.319 128.5,276.5C 146.855,257.813 165.188,239.146 183.5,220.5 Z"/></g>
<g><path style="opacity:1" fill="#3c3c3c" d="M 218.5,220.5 C 219.5,220.5 220.5,220.5 221.5,220.5C 232.5,231.833 243.5,243.167 254.5,254.5C 253.5,254.5 252.5,254.5 251.5,254.5C 240.5,243.167 229.5,231.833 218.5,220.5 Z"/></g>
<g><path style="opacity:1" fill="#000000" d="M 221.5,220.5 C 257.5,220.5 293.5,220.5 329.5,220.5C 319.255,232.083 308.589,243.416 297.5,254.5C 283.167,254.5 268.833,254.5 254.5,254.5C 243.5,243.167 232.5,231.833 221.5,220.5 Z"/></g>
<g><path style="opacity:1" fill="#000000" d="M 332.5,220.5 C 344.167,220.5 355.833,220.5 367.5,220.5C 378.5,231.833 389.5,243.167 400.5,254.5C 366.833,254.5 333.167,254.5 299.5,254.5C 310.5,243.167 321.5,231.833 332.5,220.5 Z"/></g>
<g><path style="opacity:1" fill="#343434" d="M 367.5,220.5 C 368.5,220.5 369.5,220.5 370.5,220.5C 381.5,231.833 392.5,243.167 403.5,254.5C 402.5,254.5 401.5,254.5 400.5,254.5C 389.5,243.167 378.5,231.833 367.5,220.5 Z"/></g>
<g><path style="opacity:1" fill="#000000" d="M 370.5,220.5 C 406.833,220.5 443.167,220.5 479.5,220.5C 468.5,231.833 457.5,243.167 446.5,254.5C 432.167,254.5 417.833,254.5 403.5,254.5C 392.5,243.167 381.5,231.833 370.5,220.5 Z"/></g>
<g><path style="opacity:1" fill="#000000" d="M 481.5,220.5 C 493.167,220.5 504.833,220.5 516.5,220.5C 527.5,231.833 538.5,243.167 549.5,254.5C 515.833,254.5 482.167,254.5 448.5,254.5C 459.5,243.167 470.5,231.833 481.5,220.5 Z"/></g>
<g><path style="opacity:1" fill="#000000" d="M 519.5,220.5 C 555.5,220.5 591.5,220.5 627.5,220.5C 617.202,231.298 606.702,241.965 596,252.5C 595.536,253.094 595.369,253.761 595.5,254.5C 581.167,254.5 566.833,254.5 552.5,254.5C 541.5,243.167 530.5,231.833 519.5,220.5 Z"/></g>
<g><path style="opacity:1" fill="#000000" d="M 630.5,220.5 C 642.167,220.5 653.833,220.5 665.5,220.5C 676.5,231.833 687.5,243.167 698.5,254.5C 664.833,254.5 631.167,254.5 597.5,254.5C 608.5,243.167 619.5,231.833 630.5,220.5 Z"/></g>
<g><path style="opacity:1" fill="#353535" d="M 665.5,220.5 C 666.5,220.5 667.5,220.5 668.5,220.5C 679.5,231.833 690.5,243.167 701.5,254.5C 700.5,254.5 699.5,254.5 698.5,254.5C 687.5,243.167 676.5,231.833 665.5,220.5 Z"/></g>
<g><path style="opacity:1" fill="#000000" d="M 668.5,220.5 C 704.5,220.5 740.5,220.5 776.5,220.5C 765.648,231.852 754.648,243.019 743.5,254C 729.504,254.5 715.504,254.667 701.5,254.5C 690.5,243.167 679.5,231.833 668.5,220.5 Z"/></g>
<g><path style="opacity:1" fill="#000000" d="M 779.5,220.5 C 791.167,220.5 802.833,220.5 814.5,220.5C 833.006,239.173 851.339,258.006 869.5,277C 859.352,288.088 848.852,298.921 838,309.5C 837.832,291.329 837.332,273.329 836.5,255.5C 806.669,254.668 776.669,254.168 746.5,254C 757.702,242.965 768.702,231.798 779.5,220.5 Z"/></g>
<g><path style="opacity:1" fill="#010101" d="M 817.5,220.5 C 832.196,220.234 846.862,220.567 861.5,221.5C 866.234,223.739 869.401,227.406 871,232.5C 871.5,246.829 871.667,261.163 871.5,275.5C 853.068,257.612 835.068,239.279 817.5,220.5 Z"/></g>
<g><path style="opacity:1" fill="#5b5b5b" d="M 776.5,220.5 C 777.5,220.5 778.5,220.5 779.5,220.5C 768.702,231.798 757.702,242.965 746.5,254C 776.669,254.168 806.669,254.668 836.5,255.5C 611.5,255.5 386.5,255.5 161.5,255.5C 191.329,254.502 221.329,254.169 251.5,254.5C 252.5,254.5 253.5,254.5 254.5,254.5C 268.833,254.5 283.167,254.5 297.5,254.5C 298.167,254.5 298.833,254.5 299.5,254.5C 333.167,254.5 366.833,254.5 400.5,254.5C 401.5,254.5 402.5,254.5 403.5,254.5C 417.833,254.5 432.167,254.5 446.5,254.5C 447.167,254.5 447.833,254.5 448.5,254.5C 482.167,254.5 515.833,254.5 549.5,254.5C 550.5,254.5 551.5,254.5 552.5,254.5C 566.833,254.5 581.167,254.5 595.5,254.5C 596.167,254.5 596.833,254.5 597.5,254.5C 631.167,254.5 664.833,254.5 698.5,254.5C 699.5,254.5 700.5,254.5 701.5,254.5C 715.504,254.667 729.504,254.5 743.5,254C 754.648,243.019 765.648,231.852 776.5,220.5 Z"/></g>
<g><path style="opacity:1" fill="#383838" d="M 627.5,220.5 C 628.5,220.5 629.5,220.5 630.5,220.5C 619.5,231.833 608.5,243.167 597.5,254.5C 596.833,254.5 596.167,254.5 595.5,254.5C 595.369,253.761 595.536,253.094 596,252.5C 606.702,241.965 617.202,231.298 627.5,220.5 Z"/></g>
<g><path style="opacity:1" fill="#353535" d="M 516.5,220.5 C 517.5,220.5 518.5,220.5 519.5,220.5C 530.5,231.833 541.5,243.167 552.5,254.5C 551.5,254.5 550.5,254.5 549.5,254.5C 538.5,243.167 527.5,231.833 516.5,220.5 Z"/></g>
<g><path style="opacity:1" fill="#434343" d="M 181.5,220.5 C 182.167,220.5 182.833,220.5 183.5,220.5C 165.188,239.146 146.855,257.813 128.5,276.5C 138.819,287.319 149.319,297.986 160,308.5C 160.168,290.662 160.668,272.995 161.5,255.5C 161.5,282.5 161.5,309.5 161.5,336.5C 160.671,328.343 160.171,320.01 160,311.5C 148.965,300.298 137.798,289.298 126.5,278.5C 126.5,277.5 126.5,276.5 126.5,275.5C 145.167,257.5 163.5,239.167 181.5,220.5 Z"/></g>
<g><path style="opacity:1" fill="#424242" d="M 814.5,220.5 C 815.5,220.5 816.5,220.5 817.5,220.5C 835.068,239.279 853.068,257.612 871.5,275.5C 871.5,276.5 871.5,277.5 871.5,278.5C 860.202,289.298 849.035,300.298 838,311.5C 837.829,320.01 837.329,328.343 836.5,336.5C 836.5,309.5 836.5,282.5 836.5,255.5C 837.332,273.329 837.832,291.329 838,309.5C 848.852,298.921 859.352,288.088 869.5,277C 851.339,258.006 833.006,239.173 814.5,220.5 Z"/></g>
<g><path style="opacity:1" fill="#3c3c3c" d="M 479.5,220.5 C 480.167,220.5 480.833,220.5 481.5,220.5C 470.5,231.833 459.5,243.167 448.5,254.5C 447.833,254.5 447.167,254.5 446.5,254.5C 457.5,243.167 468.5,231.833 479.5,220.5 Z"/></g>
<g><path style="opacity:1" fill="#393939" d="M 329.5,220.5 C 330.5,220.5 331.5,220.5 332.5,220.5C 321.5,231.833 310.5,243.167 299.5,254.5C 298.833,254.5 298.167,254.5 297.5,254.5C 308.589,243.416 319.255,232.083 329.5,220.5 Z"/></g>
<g><path style="opacity:1" fill="#fdfdfd" d="M 161.5,255.5 C 386.5,255.5 611.5,255.5 836.5,255.5C 836.5,282.5 836.5,309.5 836.5,336.5C 828.5,336.5 820.5,336.5 812.5,336.5C 811.5,336.5 810.5,336.5 809.5,336.5C 801.167,336.5 792.833,336.5 784.5,336.5C 783.5,336.5 782.5,336.5 781.5,336.5C 742.167,336.5 702.833,336.5 663.5,336.5C 662.5,336.5 661.5,336.5 660.5,336.5C 652.167,336.5 643.833,336.5 635.5,336.5C 634.5,336.5 633.5,336.5 632.5,336.5C 593.167,336.5 553.833,336.5 514.5,336.5C 513.5,336.5 512.5,336.5 511.5,336.5C 503.167,336.5 494.833,336.5 486.5,336.5C 485.5,336.5 484.5,336.5 483.5,336.5C 444.167,336.5 404.833,336.5 365.5,336.5C 364.5,336.5 363.5,336.5 362.5,336.5C 354.167,336.5 345.833,336.5 337.5,336.5C 336.5,336.5 335.5,336.5 334.5,336.5C 295.167,336.5 255.833,336.5 216.5,336.5C 215.5,336.5 214.5,336.5 213.5,336.5C 205.167,336.5 196.833,336.5 188.5,336.5C 187.5,336.5 186.5,336.5 185.5,336.5C 177.5,336.5 169.5,336.5 161.5,336.5C 161.5,309.5 161.5,282.5 161.5,255.5 Z"/></g>
<g><path style="opacity:1" fill="#000000" d="M 126.5,278.5 C 137.798,289.298 148.965,300.298 160,311.5C 160.171,320.01 160.671,328.343 161.5,336.5C 169.5,336.5 177.5,336.5 185.5,336.5C 189.797,341.298 194.297,345.965 199,350.5C 199.667,351.167 199.667,351.833 199,352.5C 193.167,358.333 187.333,364.167 181.5,370C 174.654,370.172 167.987,370.672 161.5,371.5C 160.509,377.979 160.176,384.646 160.5,391.5C 149.167,402.5 137.833,413.5 126.5,424.5C 126.5,375.833 126.5,327.167 126.5,278.5 Z"/></g>
<g><path style="opacity:1" fill="#030303" d="M 193.5,278.5 C 219.509,278.167 245.509,278.5 271.5,279.5C 261.014,290.486 250.348,301.319 239.5,312C 223.837,312.5 208.17,312.667 192.5,312.5C 184.288,309.443 179.954,303.443 179.5,294.5C 180.985,286.351 185.651,281.017 193.5,278.5 Z"/></g>
<g><path style="opacity:1" fill="#020202" d="M 366.5,278.5 C 381.04,283.262 384.873,292.596 378,306.5C 375.045,310.227 371.212,312.227 366.5,312.5C 348.497,312.667 330.497,312.5 312.5,312C 301.653,300.986 290.653,290.152 279.5,279.5C 308.492,278.5 337.492,278.167 366.5,278.5 Z"/></g>
<g><path style="opacity:1" fill="#060606" d="M 689.5,288.5 C 690.162,292.466 690.495,296.466 690.5,300.5C 688.015,306.483 683.682,310.649 677.5,313C 669.5,313.667 661.5,313.667 653.5,313C 640.569,307.32 637.069,298.154 643,285.5C 645.264,282.567 648.098,280.4 651.5,279C 660.5,278.333 669.5,278.333 678.5,279C 683.592,280.596 687.258,283.763 689.5,288.5 Z"/></g>
<g><path style="opacity:1" fill="#050505" d="M 723.5,278.5 C 732.5,287.833 741.5,297.167 750.5,306.5C 748.276,309.624 745.276,311.791 741.5,313C 733.167,313.667 724.833,313.667 716.5,313C 711.056,311.292 707.389,307.792 705.5,302.5C 704.61,300.218 704.444,297.885 705,295.5C 710.757,289.237 716.924,283.57 723.5,278.5 Z"/></g>
<g><path style="opacity:1" fill="#343434" d="M 723.5,278.5 C 728.833,278.5 734.167,278.5 739.5,278.5C 740.791,278.263 741.791,278.596 742.5,279.5C 737.489,279.334 732.489,279.501 727.5,280C 735.73,288.062 743.73,296.228 751.5,304.5C 751.672,305.492 751.338,306.158 750.5,306.5C 741.5,297.167 732.5,287.833 723.5,278.5 Z"/></g>
<g><path style="opacity:1" fill="#040404" d="M 742.5,279.5 C 752.029,283.216 755.863,290.216 754,300.5C 753.8,302.32 752.966,303.653 751.5,304.5C 743.73,296.228 735.73,288.062 727.5,280C 732.489,279.501 737.489,279.334 742.5,279.5 Z"/></g>
<g><path style="opacity:1" fill="#050505" d="M 778.5,278.5 C 787.839,278.334 797.173,278.5 806.5,279C 819.156,285.815 821.656,295.315 814,307.5C 811.331,310.164 808.164,311.998 804.5,313C 796.5,313.667 788.5,313.667 780.5,313C 770.488,308.814 766.321,301.314 768,290.5C 769.963,285.044 773.463,281.044 778.5,278.5 Z"/></g>
<g><path style="opacity:1" fill="#000000" d="M 871.5,278.5 C 871.5,327.167 871.5,375.833 871.5,424.5C 860.167,413.5 848.833,402.5 837.5,391.5C 837.824,384.646 837.491,377.979 836.5,371.5C 830.013,370.672 823.346,370.172 816.5,370C 810.667,364.167 804.833,358.333 799,352.5C 798.333,351.833 798.333,351.167 799,350.5C 803.703,345.965 808.203,341.298 812.5,336.5C 820.5,336.5 828.5,336.5 836.5,336.5C 837.329,328.343 837.829,320.01 838,311.5C 849.035,300.298 860.202,289.298 871.5,278.5 Z"/></g>
<g><path style="opacity:1" fill="#141414" d="M 714.5,279.5 C 716.355,279.272 717.188,279.939 717,281.5C 713.633,285.203 709.966,288.536 706,291.5C 705.517,290.552 705.351,289.552 705.5,288.5C 707.478,284.522 710.478,281.522 714.5,279.5 Z"/></g>
<g><path style="opacity:1" fill="#5e5e5e" d="M 739.5,278.5 C 734.167,278.5 728.833,278.5 723.5,278.5C 716.924,283.57 710.757,289.237 705,295.5C 704.444,297.885 704.61,300.218 705.5,302.5C 704.883,302.389 704.383,302.056 704,301.5C 703.333,297.5 703.333,293.5 704,289.5C 704.383,288.944 704.883,288.611 705.5,288.5C 705.351,289.552 705.517,290.552 706,291.5C 709.966,288.536 713.633,285.203 717,281.5C 717.188,279.939 716.355,279.272 714.5,279.5C 715.263,278.732 716.263,278.232 717.5,278C 725.012,277.178 732.345,277.345 739.5,278.5 Z"/></g>
<g><path style="opacity:1" fill="#8a8a8a" d="M 689.5,288.5 C 690.926,290.679 691.592,293.179 691.5,296C 691.492,297.707 691.158,299.207 690.5,300.5C 690.495,296.466 690.162,292.466 689.5,288.5 Z"/></g>
<g><path style="opacity:1" fill="#565656" d="M 193.5,278.5 C 251.167,277.167 308.833,277.167 366.5,278.5C 337.492,278.167 308.492,278.5 279.5,279.5C 290.653,290.152 301.653,300.986 312.5,312C 330.497,312.5 348.497,312.667 366.5,312.5C 308.5,313.833 250.5,313.833 192.5,312.5C 208.17,312.667 223.837,312.5 239.5,312C 250.348,301.319 261.014,290.486 271.5,279.5C 245.509,278.5 219.509,278.167 193.5,278.5 Z"/></g>
<g><path style="opacity:1" fill="#010101" d="M 273.5,279.5 C 274.873,279.343 276.207,279.51 277.5,280C 288.167,290.667 298.833,301.333 309.5,312C 286.833,312.667 264.167,312.667 241.5,312C 252.369,301.298 263.035,290.465 273.5,279.5 Z"/></g>
<g><path style="opacity:1" fill="#3c3c3c" d="M 185.5,336.5 C 186.5,336.5 187.5,336.5 188.5,336.5C 191.781,341.616 195.948,345.949 201,349.5C 206.052,345.949 210.219,341.616 213.5,336.5C 214.5,336.5 215.5,336.5 216.5,336.5C 211.855,341.48 207.188,346.48 202.5,351.5C 208.373,357.872 214.373,364.039 220.5,370C 257.167,370.667 293.833,370.667 330.5,370C 336.682,363.986 342.682,357.819 348.5,351.5C 343.812,346.48 339.145,341.48 334.5,336.5C 335.5,336.5 336.5,336.5 337.5,336.5C 340.791,341.791 345.124,346.124 350.5,349.5C 355.252,345.753 359.252,341.419 362.5,336.5C 363.5,336.5 364.5,336.5 365.5,336.5C 360.785,341.212 356.452,346.212 352.5,351.5C 358.076,357.65 363.742,363.817 369.5,370C 406.167,370.667 442.833,370.667 479.5,370C 485.682,363.986 491.682,357.819 497.5,351.5C 492.812,346.48 488.145,341.48 483.5,336.5C 484.5,336.5 485.5,336.5 486.5,336.5C 489.781,341.616 493.948,345.949 499,349.5C 504.052,345.949 508.219,341.616 511.5,336.5C 512.5,336.5 513.5,336.5 514.5,336.5C 509.855,341.48 505.188,346.48 500.5,351.5C 506.373,357.872 512.373,364.039 518.5,370C 555.167,370.667 591.833,370.667 628.5,370C 634.01,363.323 640.01,357.157 646.5,351.5C 641.812,346.48 637.145,341.48 632.5,336.5C 633.5,336.5 634.5,336.5 635.5,336.5C 638.781,341.616 642.948,345.949 648,349.5C 653.052,345.949 657.219,341.616 660.5,336.5C 661.5,336.5 662.5,336.5 663.5,336.5C 658.855,341.48 654.188,346.48 649.5,351.5C 655.318,357.819 661.318,363.986 667.5,370C 704.167,370.667 740.833,370.667 777.5,370C 783.682,363.986 789.682,357.819 795.5,351.5C 790.812,346.48 786.145,341.48 781.5,336.5C 782.5,336.5 783.5,336.5 784.5,336.5C 787.781,341.616 791.948,345.949 797,349.5C 802.052,345.949 806.219,341.616 809.5,336.5C 810.5,336.5 811.5,336.5 812.5,336.5C 808.203,341.298 803.703,345.965 799,350.5C 798.333,351.167 798.333,351.833 799,352.5C 804.833,358.333 810.667,364.167 816.5,370C 823.346,370.172 830.013,370.672 836.5,371.5C 611.5,371.5 386.5,371.5 161.5,371.5C 167.987,370.672 174.654,370.172 181.5,370C 187.333,364.167 193.167,358.333 199,352.5C 199.667,351.833 199.667,351.167 199,350.5C 194.297,345.965 189.797,341.298 185.5,336.5 Z"/></g>
<g><path style="opacity:1" fill="#010101" d="M 796.5,352.5 C 802.631,358.13 808.631,363.964 814.5,370C 802.833,370.667 791.167,370.667 779.5,370C 785.37,364.298 791.036,358.465 796.5,352.5 Z"/></g>
<g><path style="opacity:1" fill="#020202" d="M 646.5,353.5 C 647.552,353.351 648.552,353.517 649.5,354C 654.833,359.333 660.167,364.667 665.5,370C 653.833,370.667 642.167,370.667 630.5,370C 636.036,364.631 641.37,359.131 646.5,353.5 Z"/></g>
<g><path style="opacity:1" fill="#020202" d="M 498.5,352.5 C 504.631,358.13 510.631,363.964 516.5,370C 504.833,370.667 493.167,370.667 481.5,370C 487.37,364.298 493.036,358.465 498.5,352.5 Z"/></g>
<g><path style="opacity:1" fill="#020202" d="M 348.5,353.5 C 349.552,353.351 350.552,353.517 351.5,354C 356.833,359.333 362.167,364.667 367.5,370C 355.833,370.667 344.167,370.667 332.5,370C 338.036,364.631 343.37,359.131 348.5,353.5 Z"/></g>
<g><path style="opacity:1" fill="#010101" d="M 200.5,352.5 C 206.631,358.13 212.631,363.964 218.5,370C 206.833,370.667 195.167,370.667 183.5,370C 189.37,364.298 195.036,358.465 200.5,352.5 Z"/></g>
<g><path style="opacity:1" fill="#0a0a0a" d="M 784.5,336.5 C 792.833,336.5 801.167,336.5 809.5,336.5C 806.219,341.616 802.052,345.949 797,349.5C 791.948,345.949 787.781,341.616 784.5,336.5 Z"/></g>
<g><path style="opacity:1" fill="#010101" d="M 663.5,336.5 C 702.833,336.5 742.167,336.5 781.5,336.5C 786.145,341.48 790.812,346.48 795.5,351.5C 789.682,357.819 783.682,363.986 777.5,370C 740.833,370.667 704.167,370.667 667.5,370C 661.318,363.986 655.318,357.819 649.5,351.5C 654.188,346.48 658.855,341.48 663.5,336.5 Z"/></g>
<g><path style="opacity:1" fill="#0a0a0a" d="M 635.5,336.5 C 643.833,336.5 652.167,336.5 660.5,336.5C 657.219,341.616 653.052,345.949 648,349.5C 642.948,345.949 638.781,341.616 635.5,336.5 Z"/></g>
<g><path style="opacity:1" fill="#010101" d="M 514.5,336.5 C 553.833,336.5 593.167,336.5 632.5,336.5C 637.145,341.48 641.812,346.48 646.5,351.5C 640.01,357.157 634.01,363.323 628.5,370C 591.833,370.667 555.167,370.667 518.5,370C 512.373,364.039 506.373,357.872 500.5,351.5C 505.188,346.48 509.855,341.48 514.5,336.5 Z"/></g>
<g><path style="opacity:1" fill="#0a0a0a" d="M 486.5,336.5 C 494.833,336.5 503.167,336.5 511.5,336.5C 508.219,341.616 504.052,345.949 499,349.5C 493.948,345.949 489.781,341.616 486.5,336.5 Z"/></g>
<g><path style="opacity:1" fill="#010101" d="M 365.5,336.5 C 404.833,336.5 444.167,336.5 483.5,336.5C 488.145,341.48 492.812,346.48 497.5,351.5C 491.682,357.819 485.682,363.986 479.5,370C 442.833,370.667 406.167,370.667 369.5,370C 363.742,363.817 358.076,357.65 352.5,351.5C 356.452,346.212 360.785,341.212 365.5,336.5 Z"/></g>
<g><path style="opacity:1" fill="#090909" d="M 337.5,336.5 C 345.833,336.5 354.167,336.5 362.5,336.5C 359.252,341.419 355.252,345.753 350.5,349.5C 345.124,346.124 340.791,341.791 337.5,336.5 Z"/></g>
<g><path style="opacity:1" fill="#010101" d="M 216.5,336.5 C 255.833,336.5 295.167,336.5 334.5,336.5C 339.145,341.48 343.812,346.48 348.5,351.5C 342.682,357.819 336.682,363.986 330.5,370C 293.833,370.667 257.167,370.667 220.5,370C 214.373,364.039 208.373,357.872 202.5,351.5C 207.188,346.48 211.855,341.48 216.5,336.5 Z"/></g>
<g><path style="opacity:1" fill="#0a0a0a" d="M 188.5,336.5 C 196.833,336.5 205.167,336.5 213.5,336.5C 210.219,341.616 206.052,345.949 201,349.5C 195.948,345.949 191.781,341.616 188.5,336.5 Z"/></g>
<g><path style="opacity:1" fill="#e6e6e6" d="M 161.5,371.5 C 386.5,371.5 611.5,371.5 836.5,371.5C 836.5,371.833 836.5,372.167 836.5,372.5C 611.833,372.5 387.167,372.5 162.5,372.5C 162.5,496.833 162.5,621.167 162.5,745.5C 162.167,745.5 161.833,745.5 161.5,745.5C 161.5,620.833 161.5,496.167 161.5,371.5 Z"/></g>
<g><path style="opacity:1" fill="#fefefe" d="M 836.5,372.5 C 836.5,496.833 836.5,621.167 836.5,745.5C 611.833,745.5 387.167,745.5 162.5,745.5C 162.5,621.167 162.5,496.833 162.5,372.5C 387.167,372.5 611.833,372.5 836.5,372.5 Z"/></g>
<g><path style="opacity:1" fill="#010101" d="M 549.5,393.5 C 549.5,448.167 549.5,502.833 549.5,557.5C 559.833,557.5 570.167,557.5 580.5,557.5C 580.5,553.833 580.5,550.167 580.5,546.5C 581.829,534.681 585.663,523.681 592,513.5C 595.581,508.672 598.915,503.672 602,498.5C 612.294,487.173 623.294,486.506 635,496.5C 639.543,506.585 644.877,516.252 651,525.5C 657.442,533.941 665.609,540.107 675.5,544C 684.3,546.244 692.967,548.911 701.5,552C 709.058,557.743 711.558,565.243 709,574.5C 696.699,595.803 680.533,613.636 660.5,628C 654.919,630.86 649.252,633.526 643.5,636C 613.409,682.728 571.409,713.394 517.5,728C 507.536,730.399 497.536,732.565 487.5,734.5C 482.269,734.444 477.269,735.111 472.5,736.5C 451.846,737.553 431.179,737.72 410.5,737C 346.107,726.611 306.94,689.444 293,625.5C 289.241,608.009 287.908,590.342 289,572.5C 291.611,563.721 297.444,558.721 306.5,557.5C 313.833,557.5 321.167,557.5 328.5,557.5C 328.5,542.833 328.5,528.167 328.5,513.5C 330.518,505.98 335.185,500.813 342.5,498C 357.83,497.5 373.163,497.333 388.5,497.5C 388.333,482.496 388.5,467.496 389,452.5C 391.665,443.66 397.498,438.66 406.5,437.5C 420.833,437.5 435.167,437.5 449.5,437.5C 449.5,422.833 449.5,408.167 449.5,393.5C 450.64,386.185 454.64,381.019 461.5,378C 473.933,376.862 486.433,376.362 499,376.5C 510.5,376.667 522,376.833 533.5,377C 541.72,379.72 547.053,385.22 549.5,393.5 Z"/></g>
<g><path style="opacity:1" fill="#010101" d="M 160.5,393.5 C 160.5,415.167 160.5,436.833 160.5,458.5C 149.317,448.151 138.65,437.317 128.5,426C 138.66,414.673 149.327,403.84 160.5,393.5 Z"/></g>
<g><path style="opacity:1" fill="#020202" d="M 837.5,393.5 C 848.673,403.84 859.34,414.673 869.5,426C 859.34,437.327 848.673,448.16 837.5,458.5C 837.5,436.833 837.5,415.167 837.5,393.5 Z"/></g>
<g><path style="opacity:1" fill="#fefffe" d="M 489.5,417.5 C 495.833,417.5 502.167,417.5 508.5,417.5C 508.5,423.833 508.5,430.167 508.5,436.5C 508.5,430.167 508.5,423.833 508.5,417.5C 502.167,417.5 495.833,417.5 489.5,417.5 Z"/></g>
<g><path style="opacity:1" fill="#b1b1b1" d="M 489.5,417.5 C 495.979,416.509 502.646,416.176 509.5,416.5C 509.824,423.354 509.491,430.021 508.5,436.5C 508.5,430.167 508.5,423.833 508.5,417.5C 502.167,417.5 495.833,417.5 489.5,417.5 Z"/></g>
<g><path style="opacity:1" fill="#000000" d="M 126.5,427.5 C 137.833,438.5 149.167,449.5 160.5,460.5C 160.667,487.169 160.5,513.835 160,540.5C 148.965,551.702 137.798,562.702 126.5,573.5C 126.5,524.833 126.5,476.167 126.5,427.5 Z"/></g>
<g><path style="opacity:1" fill="#000000" d="M 871.5,427.5 C 871.5,476.167 871.5,524.833 871.5,573.5C 860.202,562.702 849.035,551.702 838,540.5C 837.5,513.835 837.333,487.169 837.5,460.5C 848.833,449.5 860.167,438.5 871.5,427.5 Z"/></g>
<g><path style="opacity:1" fill="#3c3c3c" d="M 160.5,391.5 C 160.5,392.167 160.5,392.833 160.5,393.5C 149.327,403.84 138.66,414.673 128.5,426C 138.65,437.317 149.317,448.151 160.5,458.5C 160.5,459.167 160.5,459.833 160.5,460.5C 149.167,449.5 137.833,438.5 126.5,427.5C 126.5,426.5 126.5,425.5 126.5,424.5C 137.833,413.5 149.167,402.5 160.5,391.5 Z"/></g>
<g><path style="opacity:1" fill="#808080" d="M 449.5,393.5 C 449.5,408.167 449.5,422.833 449.5,437.5C 435.167,437.5 420.833,437.5 406.5,437.5C 420.323,436.504 434.323,436.171 448.5,436.5C 448.171,421.99 448.504,407.657 449.5,393.5 Z"/></g>
<g><path style="opacity:1" fill="#3d3d3d" d="M 837.5,391.5 C 848.833,402.5 860.167,413.5 871.5,424.5C 871.5,425.5 871.5,426.5 871.5,427.5C 860.167,438.5 848.833,449.5 837.5,460.5C 837.5,459.833 837.5,459.167 837.5,458.5C 848.673,448.16 859.34,437.327 869.5,426C 859.34,414.673 848.673,403.84 837.5,393.5C 837.5,392.833 837.5,392.167 837.5,391.5 Z"/></g>
<g><path style="opacity:1" fill="#dcdcdc" d="M 549.5,393.5 C 550.499,447.664 550.832,501.997 550.5,556.5C 560.167,556.5 569.833,556.5 579.5,556.5C 579.187,552.958 579.521,549.625 580.5,546.5C 580.5,550.167 580.5,553.833 580.5,557.5C 570.167,557.5 559.833,557.5 549.5,557.5C 549.5,502.833 549.5,448.167 549.5,393.5 Z"/></g>
<g><path style="opacity:1" fill="#fefffe" d="M 448.5,477.5 C 448.5,483.833 448.5,490.167 448.5,496.5C 442.167,496.5 435.833,496.5 429.5,496.5C 429.5,490.167 429.5,483.833 429.5,477.5C 435.833,477.5 442.167,477.5 448.5,477.5 Z"/></g>
<g><path style="opacity:1" fill="#fefffe" d="M 508.5,477.5 C 508.5,483.833 508.5,490.167 508.5,496.5C 502.167,496.5 495.833,496.5 489.5,496.5C 489.5,490.167 489.5,483.833 489.5,477.5C 495.833,477.5 502.167,477.5 508.5,477.5 Z"/></g>
<g><path style="opacity:1" fill="#909090" d="M 448.5,477.5 C 442.167,477.5 435.833,477.5 429.5,477.5C 429.5,483.833 429.5,490.167 429.5,496.5C 435.833,496.5 442.167,496.5 448.5,496.5C 442.021,497.491 435.354,497.824 428.5,497.5C 428.5,490.5 428.5,483.5 428.5,476.5C 435.354,476.176 442.021,476.509 448.5,477.5 Z"/></g>
<g><path style="opacity:1" fill="#acacac" d="M 508.5,477.5 C 509.491,483.979 509.824,490.646 509.5,497.5C 502.646,497.824 495.979,497.491 489.5,496.5C 495.833,496.5 502.167,496.5 508.5,496.5C 508.5,490.167 508.5,483.833 508.5,477.5 Z"/></g>
<g><path style="opacity:1" fill="#d4d4d4" d="M 328.5,513.5 C 328.5,528.167 328.5,542.833 328.5,557.5C 321.167,557.5 313.833,557.5 306.5,557.5C 313.313,556.509 320.313,556.175 327.5,556.5C 327.171,541.99 327.504,527.657 328.5,513.5 Z"/></g>
<g><path style="opacity:1" fill="#fdfdfd" d="M 369.5,537.5 C 375.833,537.5 382.167,537.5 388.5,537.5C 388.5,543.833 388.5,550.167 388.5,556.5C 388.5,550.167 388.5,543.833 388.5,537.5C 382.167,537.5 375.833,537.5 369.5,537.5 Z"/></g>
<g><path style="opacity:1" fill="#f9f9f9" d="M 429.5,537.5 C 435.833,537.5 442.167,537.5 448.5,537.5C 448.5,544.167 448.5,550.833 448.5,557.5C 442.167,557.5 435.833,557.5 429.5,557.5C 429.5,550.833 429.5,544.167 429.5,537.5 Z"/></g>
<g><path style="opacity:1" fill="#fefffe" d="M 489.5,538.5 C 495.833,538.5 502.167,538.5 508.5,538.5C 508.5,544.5 508.5,550.5 508.5,556.5C 502.167,556.5 495.833,556.5 489.5,556.5C 489.5,550.5 489.5,544.5 489.5,538.5 Z"/></g>
<g><path style="opacity:1" fill="#bfbfbf" d="M 489.5,538.5 C 495.979,537.509 502.646,537.176 509.5,537.5C 509.5,544.167 509.5,550.833 509.5,557.5C 502.646,557.824 495.979,557.491 489.5,556.5C 495.833,556.5 502.167,556.5 508.5,556.5C 508.5,550.5 508.5,544.5 508.5,538.5C 502.167,538.5 495.833,538.5 489.5,538.5 Z"/></g>
<g><path style="opacity:1" fill="#fdfdfd" d="M 330.5,605.5 C 330.5,603.167 330.5,600.833 330.5,598.5C 417.335,598.833 504.002,598.499 590.5,597.5C 603.405,594.776 612.238,587.11 617,574.5C 619.452,567.025 620.786,559.359 621,551.5C 630.313,563.567 641.813,572.901 655.5,579.5C 646.177,591.001 634.177,598.167 619.5,601C 613.561,607.044 608.727,613.877 605,621.5C 581.581,654.316 550.414,676.483 511.5,688C 481.361,696.026 450.695,699.359 419.5,698C 409.882,696.732 400.549,694.398 391.5,691C 400.525,686.298 408.692,680.465 416,673.5C 422.65,659.784 419.15,649.617 405.5,643C 401.5,642.333 397.5,642.333 393.5,643C 386.813,647.032 380.146,651.032 373.5,655C 365.276,657.135 356.943,657.802 348.5,657C 338.4,641.293 332.4,624.126 330.5,605.5 Z"/></g>
<g><path style="opacity:1" fill="#c0c0c0" d="M 369.5,537.5 C 369.5,543.833 369.5,550.167 369.5,556.5C 375.833,556.5 382.167,556.5 388.5,556.5C 382.021,557.491 375.354,557.824 368.5,557.5C 368.176,550.646 368.509,543.979 369.5,537.5 Z"/></g>
<g><path style="opacity:1" fill="#000000" d="M 126.5,576.5 C 137.798,587.298 148.965,598.298 160,609.5C 160.5,636.165 160.667,662.831 160.5,689.5C 149.167,700.5 137.833,711.5 126.5,722.5C 126.5,673.833 126.5,625.167 126.5,576.5 Z"/></g>
<g><path style="opacity:1" fill="#000000" d="M 871.5,576.5 C 871.5,625.167 871.5,673.833 871.5,722.5C 860.167,711.5 848.833,700.5 837.5,689.5C 837.333,662.831 837.5,636.165 838,609.5C 849.035,598.298 860.202,587.298 871.5,576.5 Z"/></g>
<g><path style="opacity:1" fill="#505050" d="M 161.5,371.5 C 161.5,496.167 161.5,620.833 161.5,745.5C 160.503,727.674 160.17,709.674 160.5,691.5C 160.5,690.833 160.5,690.167 160.5,689.5C 160.667,662.831 160.5,636.165 160,609.5C 148.965,598.298 137.798,587.298 126.5,576.5C 126.5,575.5 126.5,574.5 126.5,573.5C 137.798,562.702 148.965,551.702 160,540.5C 160.5,513.835 160.667,487.169 160.5,460.5C 160.5,459.833 160.5,459.167 160.5,458.5C 160.5,436.833 160.5,415.167 160.5,393.5C 160.5,392.833 160.5,392.167 160.5,391.5C 160.176,384.646 160.509,377.979 161.5,371.5 Z"/></g>
<g><path style="opacity:1" fill="#020202" d="M 159.5,542.5 C 160.663,563.996 160.829,585.663 160,607.5C 149.124,596.959 138.624,586.125 128.5,575C 138.66,564.007 148.993,553.173 159.5,542.5 Z"/></g>
<g><path style="opacity:1" fill="#535353" d="M 836.5,371.5 C 837.491,377.979 837.824,384.646 837.5,391.5C 837.5,392.167 837.5,392.833 837.5,393.5C 837.5,415.167 837.5,436.833 837.5,458.5C 837.5,459.167 837.5,459.833 837.5,460.5C 837.333,487.169 837.5,513.835 838,540.5C 849.035,551.702 860.202,562.702 871.5,573.5C 871.5,574.5 871.5,575.5 871.5,576.5C 860.202,587.298 849.035,598.298 838,609.5C 837.5,636.165 837.333,662.831 837.5,689.5C 837.5,690.167 837.5,690.833 837.5,691.5C 837.83,709.674 837.497,727.674 836.5,745.5C 836.5,621.167 836.5,496.833 836.5,372.5C 836.5,372.167 836.5,371.833 836.5,371.5 Z"/></g>
<g><path style="opacity:1" fill="#020202" d="M 837.5,542.5 C 848.673,552.84 859.34,563.673 869.5,575C 859.376,586.125 848.876,596.959 838,607.5C 837.5,585.836 837.333,564.169 837.5,542.5 Z"/></g>
<g><path style="opacity:1" fill="#dddddd" d="M 590.5,597.5 C 504.002,598.499 417.335,598.833 330.5,598.5C 330.5,600.833 330.5,603.167 330.5,605.5C 329.527,603.052 329.194,600.385 329.5,597.5C 416.5,597.5 503.5,597.5 590.5,597.5 Z"/></g>
<g><path style="opacity:1" fill="#070707" d="M 441.5,618.5 C 455.448,616.046 464.615,621.379 469,634.5C 468.98,650.853 460.814,658.687 444.5,658C 433.135,653.772 427.968,645.605 429,633.5C 431.211,626.796 435.378,621.796 441.5,618.5 Z"/></g>
<g><path style="opacity:1" fill="#010101" d="M 160.5,691.5 C 160.17,709.674 160.503,727.674 161.5,745.5C 191.331,746.332 221.331,746.832 251.5,747C 240.298,758.035 229.298,769.202 218.5,780.5C 206.833,780.5 195.167,780.5 183.5,780.5C 165.188,761.854 146.855,743.187 128.5,724.5C 139.215,713.453 149.882,702.453 160.5,691.5 Z"/></g>
<g><path style="opacity:1" fill="#010101" d="M 837.5,691.5 C 848.673,701.84 859.34,712.673 869.5,724C 851.339,742.994 833.006,761.827 814.5,780.5C 802.833,780.5 791.167,780.5 779.5,780.5C 768.702,769.202 757.702,758.035 746.5,747C 776.669,746.832 806.669,746.332 836.5,745.5C 837.497,727.674 837.83,709.674 837.5,691.5 Z"/></g>
<g><path style="opacity:1" fill="#3f3f3f" d="M 837.5,689.5 C 848.833,700.5 860.167,711.5 871.5,722.5C 871.5,723.5 871.5,724.5 871.5,725.5C 852.782,743.217 834.782,761.551 817.5,780.5C 816.5,780.5 815.5,780.5 814.5,780.5C 833.006,761.827 851.339,742.994 869.5,724C 859.34,712.673 848.673,701.84 837.5,691.5C 837.5,690.833 837.5,690.167 837.5,689.5 Z"/></g>
<g><path style="opacity:1" fill="#3e3e3e" d="M 160.5,689.5 C 160.5,690.167 160.5,690.833 160.5,691.5C 149.882,702.453 139.215,713.453 128.5,724.5C 146.855,743.187 165.188,761.854 183.5,780.5C 182.5,780.5 181.5,780.5 180.5,780.5C 163.218,761.551 145.218,743.217 126.5,725.5C 126.5,724.5 126.5,723.5 126.5,722.5C 137.833,711.5 149.167,700.5 160.5,689.5 Z"/></g>
<g><path style="opacity:1" fill="#030303" d="M 126.5,725.5 C 145.218,743.217 163.218,761.551 180.5,780.5C 166.163,780.667 151.829,780.5 137.5,780C 132.011,777.532 128.511,773.365 127,767.5C 126.5,753.504 126.333,739.504 126.5,725.5 Z"/></g>
<g><path style="opacity:1" fill="#030303" d="M 871.5,725.5 C 871.667,739.504 871.5,753.504 871,767.5C 869.464,774.369 865.298,778.536 858.5,780C 844.837,780.5 831.171,780.667 817.5,780.5C 834.782,761.551 852.782,743.217 871.5,725.5 Z"/></g>
<g><path style="opacity:1" fill="#aeaeae" d="M 487.5,734.5 C 482.731,735.889 477.731,736.556 472.5,736.5C 477.269,735.111 482.269,734.444 487.5,734.5 Z"/></g>
<g><path style="opacity:1" fill="#454545" d="M 161.5,745.5 C 161.833,745.5 162.167,745.5 162.5,745.5C 387.167,745.5 611.833,745.5 836.5,745.5C 806.669,746.332 776.669,746.832 746.5,747C 757.702,758.035 768.702,769.202 779.5,780.5C 778.5,780.5 777.5,780.5 776.5,780.5C 765.722,769.552 755.055,758.386 744.5,747C 730.167,746.333 715.833,746.333 701.5,747C 690.304,758.029 679.304,769.196 668.5,780.5C 667.5,780.5 666.5,780.5 665.5,780.5C 676.298,769.202 687.298,758.035 698.5,747C 664.833,746.333 631.167,746.333 597.5,747C 608.702,758.035 619.702,769.202 630.5,780.5C 629.5,780.5 628.5,780.5 627.5,780.5C 616.849,769.515 606.182,758.515 595.5,747.5C 580.845,746.334 566.178,746.167 551.5,747C 540.243,757.753 529.577,768.92 519.5,780.5C 518.5,780.5 517.5,780.5 516.5,780.5C 527.298,769.202 538.298,758.035 549.5,747C 515.833,746.333 482.167,746.333 448.5,747C 459.702,758.035 470.702,769.202 481.5,780.5C 480.5,780.5 479.5,780.5 478.5,780.5C 468.423,768.92 457.757,757.753 446.5,747C 432.167,746.333 417.833,746.333 403.5,747C 392.331,758.002 381.331,769.169 370.5,780.5C 369.5,780.5 368.5,780.5 367.5,780.5C 378.298,769.202 389.298,758.035 400.5,747C 366.833,746.333 333.167,746.333 299.5,747C 310.702,758.035 321.702,769.202 332.5,780.5C 331.5,780.5 330.5,780.5 329.5,780.5C 318.903,769.568 308.237,758.568 297.5,747.5C 283.178,746.334 268.845,746.167 254.5,747C 243.277,758.056 232.277,769.222 221.5,780.5C 220.5,780.5 219.5,780.5 218.5,780.5C 229.298,769.202 240.298,758.035 251.5,747C 221.331,746.832 191.331,746.332 161.5,745.5 Z"/></g>
<g><path style="opacity:1" fill="#010101" d="M 329.5,780.5 C 293.5,780.5 257.5,780.5 221.5,780.5C 232.277,769.222 243.277,758.056 254.5,747C 268.845,746.167 283.178,746.334 297.5,747.5C 308.237,758.568 318.903,769.568 329.5,780.5 Z"/></g>
<g><path style="opacity:1" fill="#000000" d="M 367.5,780.5 C 355.833,780.5 344.167,780.5 332.5,780.5C 321.702,769.202 310.702,758.035 299.5,747C 333.167,746.333 366.833,746.333 400.5,747C 389.298,758.035 378.298,769.202 367.5,780.5 Z"/></g>
<g><path style="opacity:1" fill="#010101" d="M 478.5,780.5 C 442.5,780.5 406.5,780.5 370.5,780.5C 381.331,769.169 392.331,758.002 403.5,747C 417.833,746.333 432.167,746.333 446.5,747C 457.757,757.753 468.423,768.92 478.5,780.5 Z"/></g>
<g><path style="opacity:1" fill="#000000" d="M 516.5,780.5 C 504.833,780.5 493.167,780.5 481.5,780.5C 470.702,769.202 459.702,758.035 448.5,747C 482.167,746.333 515.833,746.333 549.5,747C 538.298,758.035 527.298,769.202 516.5,780.5 Z"/></g>
<g><path style="opacity:1" fill="#010101" d="M 627.5,780.5 C 591.5,780.5 555.5,780.5 519.5,780.5C 529.577,768.92 540.243,757.753 551.5,747C 566.178,746.167 580.845,746.334 595.5,747.5C 606.182,758.515 616.849,769.515 627.5,780.5 Z"/></g>
<g><path style="opacity:1" fill="#000000" d="M 665.5,780.5 C 653.833,780.5 642.167,780.5 630.5,780.5C 619.702,769.202 608.702,758.035 597.5,747C 631.167,746.333 664.833,746.333 698.5,747C 687.298,758.035 676.298,769.202 665.5,780.5 Z"/></g>
<g><path style="opacity:1" fill="#010101" d="M 776.5,780.5 C 740.5,780.5 704.5,780.5 668.5,780.5C 679.304,769.196 690.304,758.029 701.5,747C 715.833,746.333 730.167,746.333 744.5,747C 755.055,758.386 765.722,769.552 776.5,780.5 Z"/></g>
</svg>
