<svg xmlns="http://www.w3.org/2000/svg" xmlns:xlink="http://www.w3.org/1999/xlink" contentStyleType="text/css" data-diagram-type="DESCRIPTION" height="637px" preserveAspectRatio="none" style="width:1367px;height:637px;background:#FFFFFF;" version="1.1" viewBox="0 0 1367 637" width="1367px" zoomAndPan="magnify"><defs/><g><!--cluster Application--><g class="cluster" data-entity="Application" data-source-line="8" data-uid="ent0005" id="cluster_Application"><rect fill="none" height="624" rx="2.5" ry="2.5" style="stroke:#181818;stroke-width:1;" width="1070.5" x="290.61" y="7"/><text fill="#000000" font-family="sans-serif" font-size="14" font-weight="bold" lengthAdjust="spacing" textLength="89.2979" x="781.2111" y="21.9951">Application</text></g><!--entity UC1--><g class="entity" data-entity="UC1" data-source-line="10" data-uid="ent0006" id="entity_UC1"><ellipse cx="442.9569" cy="62.0014" fill="#F1F1F1" rx="87.0069" ry="19.8014" style="stroke:#181818;stroke-width:0.5;"/><text fill="#000000" font-family="sans-serif" font-size="14" lengthAdjust="spacing" textLength="146.9316" x="369.491" y="66.6498">G&#233;rer les conteneurs</text></g><!--entity UC2--><g class="entity" data-entity="UC2" data-source-line="11" data-uid="ent0007" id="entity_UC2"><ellipse cx="824.5016" cy="533.9983" fill="#F1F1F1" rx="82.4916" ry="18.8983" style="stroke:#181818;stroke-width:0.5;"/><text fill="#000000" font-family="sans-serif" font-size="14" lengthAdjust="spacing" textLength="136.5137" x="756.2448" y="538.6468">Cr&#233;er un conteneur</text></g><!--entity UC3--><g class="entity" data-entity="UC3" data-source-line="12" data-uid="ent0008" id="entity_UC3"><ellipse cx="824.5034" cy="459.9967" fill="#F1F1F1" rx="90.3834" ry="20.4767" style="stroke:#181818;stroke-width:0.5;"/><text fill="#000000" font-family="sans-serif" font-size="14" lengthAdjust="spacing" textLength="154.6084" x="747.1992" y="464.6451">Modifier un conteneur</text></g><!--entity UC4--><g class="entity" data-entity="UC4" data-source-line="13" data-uid="ent0009" id="entity_UC4"><ellipse cx="824.5048" cy="382.999" fill="#F1F1F1" rx="97.7948" ry="21.959" style="stroke:#181818;stroke-width:0.5;"/><text fill="#000000" font-family="sans-serif" font-size="14" lengthAdjust="spacing" textLength="171.1855" x="738.912" y="387.6474">Supprimer un conteneur</text></g><!--entity UC5--><g class="entity" data-entity="UC5" data-source-line="14" data-uid="ent0010" id="entity_UC5"><ellipse cx="824.5042" cy="299.9988" fill="#F1F1F1" rx="120.1942" ry="26.4388" style="stroke:#181818;stroke-width:0.5;"/><text fill="#000000" font-family="sans-serif" font-size="14" lengthAdjust="spacing" textLength="219.7686" x="714.6199" y="304.6473">D&#233;marrer/Arr&#234;ter un conteneur</text></g><!--entity UC6--><g class="entity" data-entity="UC6" data-source-line="15" data-uid="ent0011" id="entity_UC6"><ellipse cx="824.4961" cy="215.9952" fill="#F1F1F1" rx="102.6761" ry="22.9352" style="stroke:#181818;stroke-width:0.5;"/><text fill="#000000" font-family="sans-serif" font-size="14" lengthAdjust="spacing" textLength="181.9385" x="733.5269" y="220.6437">Red&#233;marrer un conteneur</text></g><!--entity UC7--><g class="entity" data-entity="UC7" data-source-line="16" data-uid="ent0012" id="entity_UC7"><ellipse cx="824.5019" cy="140.0004" fill="#F1F1F1" rx="77.6019" ry="17.9204" style="stroke:#181818;stroke-width:0.5;"/><text fill="#000000" font-family="sans-serif" font-size="14" lengthAdjust="spacing" textLength="124.9883" x="762.0078" y="144.6488">Visualiser les logs</text></g><!--entity UC8--><g class="entity" data-entity="UC8" data-source-line="17" data-uid="ent0013" id="entity_UC8"><ellipse cx="824.5048" cy="65.005" fill="#F1F1F1" rx="100.6248" ry="22.525" style="stroke:#181818;stroke-width:0.5;"/><text fill="#000000" font-family="sans-serif" font-size="14" lengthAdjust="spacing" textLength="177.4336" x="735.788" y="69.6534">Visualiser les statistiques</text></g><!--entity UC9--><g class="entity" data-entity="UC9" data-source-line="20" data-uid="ent0014" id="entity_UC9"><ellipse cx="1207.3985" cy="529.0037" fill="#F1F1F1" rx="69.1685" ry="16.2337" style="stroke:#181818;stroke-width:0.5;"/><text fill="#000000" font-family="sans-serif" font-size="14" lengthAdjust="spacing" textLength="104.2754" x="1155.2608" y="533.6521">G&#233;rer les ports</text></g><!--entity UC10--><g class="entity" data-entity="UC10" data-source-line="21" data-uid="ent0015" id="entity_UC10"><ellipse cx="1207.4028" cy="459.9966" fill="#F1F1F1" rx="78.6328" ry="18.1266" style="stroke:#181818;stroke-width:0.5;"/><text fill="#000000" font-family="sans-serif" font-size="14" lengthAdjust="spacing" textLength="127.4424" x="1143.6816" y="464.645">G&#233;rer les volumes</text></g><!--entity UC11--><g class="entity" data-entity="UC11" data-source-line="22" data-uid="ent0016" id="entity_UC11"><ellipse cx="1207.3983" cy="377.0017" fill="#F1F1F1" rx="137.7083" ry="29.9417" style="stroke:#181818;stroke-width:0.5;"/><text fill="#000000" font-family="sans-serif" font-size="14" lengthAdjust="spacing" textLength="256.7988" x="1078.9989" y="381.6501">G&#233;rer les variables d&#8217;environnement</text></g><!--entity UC14--><g class="entity" data-entity="UC14" data-source-line="25" data-uid="ent0017" id="entity_UC14"><ellipse cx="442.9612" cy="133.9962" fill="#F1F1F1" rx="74.8812" ry="17.3762" style="stroke:#181818;stroke-width:0.5;"/><text fill="#000000" font-family="sans-serif" font-size="14" lengthAdjust="spacing" textLength="118.4395" x="383.7414" y="138.6447">Lister les images</text></g><!--entity UC15--><g class="entity" data-entity="UC15" data-source-line="26" data-uid="ent0018" id="entity_UC15"><ellipse cx="442.9553" cy="203.9991" fill="#F1F1F1" rx="74.4453" ry="17.2891" style="stroke:#181818;stroke-width:0.5;"/><text fill="#000000" font-family="sans-serif" font-size="14" lengthAdjust="spacing" textLength="117.3799" x="384.2654" y="208.6475">Cr&#233;er une image</text></g><!--entity UC16--><g class="entity" data-entity="UC16" data-source-line="27" data-uid="ent0019" id="entity_UC16"><ellipse cx="442.9646" cy="277.0009" fill="#F1F1F1" rx="89.2546" ry="20.2509" style="stroke:#181818;stroke-width:0.5;"/><text fill="#000000" font-family="sans-serif" font-size="14" lengthAdjust="spacing" textLength="152.0518" x="366.9387" y="281.6494">Supprimer une image</text></g><!--entity UC17--><g class="entity" data-entity="UC17" data-source-line="28" data-uid="ent0020" id="entity_UC17"><ellipse cx="442.9572" cy="361.9994" fill="#F1F1F1" rx="136.3472" ry="29.6694" style="stroke:#181818;stroke-width:0.5;"/><text fill="#000000" font-family="sans-serif" font-size="14" lengthAdjust="spacing" textLength="253.9414" x="315.9865" y="366.6479">Construire une image personnalis&#233;e</text></g><!--entity UC21--><g class="entity" data-entity="UC21" data-source-line="31" data-uid="ent0021" id="entity_UC21"><ellipse cx="442.9623" cy="444.9985" fill="#F1F1F1" rx="79.1923" ry="18.2385" style="stroke:#181818;stroke-width:0.5;"/><text fill="#000000" font-family="sans-serif" font-size="14" lengthAdjust="spacing" textLength="128.7686" x="378.578" y="449.6469">G&#233;rer les serveurs</text></g><!--entity UC22--><g class="entity" data-entity="UC22" data-source-line="32" data-uid="ent0022" id="entity_UC22"><ellipse cx="442.9626" cy="518.9965" fill="#F1F1F1" rx="92.4826" ry="20.8965" style="stroke:#181818;stroke-width:0.5;"/><text fill="#000000" font-family="sans-serif" font-size="14" lengthAdjust="spacing" textLength="159.3389" x="363.2932" y="523.645">Configurer l&#8217;acc&#232;s SSH</text></g><!--entity UC23--><g class="entity" data-entity="UC23" data-source-line="35" data-uid="ent0023" id="entity_UC23"><ellipse cx="442.9632" cy="594.9986" fill="#F1F1F1" rx="86.6932" ry="19.7386" style="stroke:#181818;stroke-width:0.5;"/><text fill="#000000" font-family="sans-serif" font-size="14" lengthAdjust="spacing" textLength="146.2139" x="369.8563" y="599.6471">G&#233;rer les utilisateurs</text></g><!--entity User--><g class="entity" data-entity="User" data-source-line="4" data-uid="ent0002" id="entity_User"><ellipse cx="207.6049" cy="290.35" fill="#F1F1F1" rx="8" ry="8" style="stroke:#181818;stroke-width:0.5;"/><path d="M207.6049,298.35 L207.6049,325.35 M194.6049,306.35 L220.6049,306.35 M207.6049,325.35 L194.6049,340.35 M207.6049,325.35 L220.6049,340.35" fill="none" style="stroke:#181818;stroke-width:0.5;"/><text fill="#000000" font-family="sans-serif" font-size="14" lengthAdjust="spacing" textLength="72.0098" x="171.6" y="354.8451">Utilisateur</text></g><!--entity Admin--><g class="entity" data-entity="Admin" data-source-line="5" data-uid="ent0003" id="entity_Admin"><ellipse cx="58.3018" cy="501.35" fill="#F1F1F1" rx="8" ry="8" style="stroke:#181818;stroke-width:0.5;"/><path d="M58.3018,509.35 L58.3018,536.35 M45.3018,517.35 L71.3018,517.35 M58.3018,536.35 L45.3018,551.35 M58.3018,536.35 L71.3018,551.35" fill="none" style="stroke:#181818;stroke-width:0.5;"/><text fill="#000000" font-family="sans-serif" font-size="14" lengthAdjust="spacing" textLength="104.6035" x="6" y="565.8451">Administrateur</text></g><!--link Admin to User--><g class="link" data-entity-1="Admin" data-entity-2="User" data-source-line="6" data-uid="lnk4" id="link_Admin_User"><path d="M85.98,492.79 C112.51,454.79 142.6972,411.5498 169.3272,373.3998" fill="none" id="Admin-to-User" style="stroke:#181818;stroke-width:1;"/><polygon fill="none" points="179.63,358.64,164.4072,369.9655,174.2471,376.8341,179.63,358.64" style="stroke:#181818;stroke-width:1;"/></g><!--link UC1 to UC2--><g class="link" data-entity-1="UC1" data-entity-2="UC2" data-source-line="38" data-uid="lnk24" id="link_UC1_UC2"><path d="M526.33,68.1 C546.43,73.58 565.96,83.01 579.31,99 C628.07,157.38 569.21,375.36 609.31,440 C639.97,489.44 697.5343,511.6718 747.4443,522.8218" fill="none" id="UC1-to-UC2" style="stroke:#181818;stroke-width:1;stroke-dasharray:7.0,7.0;"/><polygon fill="#181818" points="753.3,524.13,745.3886,518.264,748.4203,523.0399,743.6444,526.0715,753.3,524.13" style="stroke:#181818;stroke-width:1;"/><text fill="#000000" font-family="sans-serif" font-size="13" lengthAdjust="spacing" textLength="63.0068" x="610.31" y="436.0669">&#171;include&#187;</text></g><!--link UC1 to UC3--><g class="link" data-entity-1="UC1" data-entity-2="UC3" data-source-line="39" data-uid="lnk25" id="link_UC1_UC3"><path d="M526.03,68.36 C546.12,73.84 565.73,83.21 579.31,99 C654.01,185.85 550.74,256.54 609.31,355 C639.85,406.34 698.1899,431.587 748.3599,445.217" fill="none" id="UC1-to-UC3" style="stroke:#181818;stroke-width:1;stroke-dasharray:7.0,7.0;"/><polygon fill="#181818" points="754.15,446.79,746.5135,440.5704,749.3249,445.4791,744.4161,448.2905,754.15,446.79" style="stroke:#181818;stroke-width:1;"/><text fill="#000000" font-family="sans-serif" font-size="13" lengthAdjust="spacing" textLength="63.0068" x="610.31" y="351.0669">&#171;include&#187;</text></g><!--link UC1 to UC4--><g class="link" data-entity-1="UC1" data-entity-2="UC4" data-source-line="40" data-uid="lnk26" id="link_UC1_UC4"><path d="M525.04,68.83 C545.25,74.29 565.17,83.54 579.31,99 C630.2,154.65 571.15,200.96 609.31,266 C640.83,319.72 701.0613,348.4833 751.5113,364.8033" fill="none" id="UC1-to-UC4" style="stroke:#181818;stroke-width:1;stroke-dasharray:7.0,7.0;"/><polygon fill="#181818" points="757.22,366.65,749.888,360.0741,752.4627,365.1111,747.4258,367.6858,757.22,366.65" style="stroke:#181818;stroke-width:1;"/><text fill="#000000" font-family="sans-serif" font-size="13" lengthAdjust="spacing" textLength="63.0068" x="610.31" y="262.0669">&#171;include&#187;</text></g><!--link UC1 to UC5--><g class="link" data-entity-1="UC1" data-entity-2="UC5" data-source-line="41" data-uid="lnk27" id="link_UC1_UC5"><path d="M522.95,70 C543.39,75.46 563.94,84.41 579.31,99 C610.19,128.33 583.84,155.87 609.31,190 C640.05,231.21 658.72,232.24 704.31,256 C720.25,264.31 732.4988,269.692 749.4588,276.022" fill="none" id="UC1-to-UC5" style="stroke:#181818;stroke-width:1;stroke-dasharray:7.0,7.0;"/><polygon fill="#181818" points="755.08,278.12,748.0468,271.2255,750.3956,276.3716,745.2495,278.7205,755.08,278.12" style="stroke:#181818;stroke-width:1;"/><text fill="#000000" font-family="sans-serif" font-size="13" lengthAdjust="spacing" textLength="63.0068" x="610.31" y="186.0669">&#171;include&#187;</text></g><!--link UC1 to UC6--><g class="link" data-entity-1="UC1" data-entity-2="UC6" data-source-line="42" data-uid="lnk28" id="link_UC1_UC6"><path d="M515.32,73.33 C536.96,78.86 560.08,87.02 579.31,99 C596.41,109.66 593.05,121.09 609.31,133 C646.55,160.27 661.33,158.14 704.31,175 C723.87,182.67 739.84,188.4167 759.26,195.0267" fill="none" id="UC1-to-UC6" style="stroke:#181818;stroke-width:1;stroke-dasharray:7.0,7.0;"/><polygon fill="#181818" points="764.94,196.96,757.7089,190.2734,760.2067,195.3489,755.1311,197.8467,764.94,196.96" style="stroke:#181818;stroke-width:1;"/><text fill="#000000" font-family="sans-serif" font-size="13" lengthAdjust="spacing" textLength="63.0068" x="610.31" y="129.0669">&#171;include&#187;</text></g><!--link UC1 to UC7--><g class="link" data-entity-1="UC1" data-entity-2="UC7" data-source-line="43" data-uid="lnk29" id="link_UC1_UC7"><path d="M508.77,75.32 C580.87,90.14 690.3929,112.6418 759.6129,126.8718" fill="none" id="UC1-to-UC7" style="stroke:#181818;stroke-width:1;stroke-dasharray:7.0,7.0;"/><polygon fill="#181818" points="765.49,128.08,757.4798,122.3496,760.5924,127.0732,755.8689,130.1858,765.49,128.08" style="stroke:#181818;stroke-width:1;"/><text fill="#000000" font-family="sans-serif" font-size="13" lengthAdjust="spacing" textLength="63.0068" x="610.31" y="93.0669">&#171;include&#187;</text></g><!--link UC1 to UC8--><g class="link" data-entity-1="UC1" data-entity-2="UC8" data-source-line="44" data-uid="lnk30" id="link_UC1_UC8"><path d="M530.08,62.68 C587.61,63.14 657.4502,63.6821 717.6202,64.1621" fill="none" id="UC1-to-UC8" style="stroke:#181818;stroke-width:1;stroke-dasharray:7.0,7.0;"/><polygon fill="#181818" points="723.62,64.21,714.6522,60.1383,718.6202,64.1701,714.5884,68.1381,723.62,64.21" style="stroke:#181818;stroke-width:1;"/><text fill="#000000" font-family="sans-serif" font-size="13" lengthAdjust="spacing" textLength="63.0068" x="610.31" y="60.0669">&#171;include&#187;</text></g><!--link UC3 to UC9--><g class="link" data-entity-1="UC3" data-entity-2="UC9" data-source-line="45" data-uid="lnk31" id="link_UC3_UC9"><path d="M896.25,472.82 C970.05,486.18 1078.2561,505.7906 1145.5561,517.9806" fill="none" id="UC3-to-UC9" style="stroke:#181818;stroke-width:1;stroke-dasharray:7.0,7.0;"/><polygon fill="#181818" points="1151.46,519.05,1143.317,513.51,1146.5401,518.1589,1141.8912,521.3819,1151.46,519.05" style="stroke:#181818;stroke-width:1;"/><text fill="#000000" font-family="sans-serif" font-size="13" lengthAdjust="spacing" textLength="63.0068" x="975.7" y="485.0669">&#171;include&#187;</text></g><!--link UC3 to UC10--><g class="link" data-entity-1="UC3" data-entity-2="UC10" data-source-line="46" data-uid="lnk32" id="link_UC3_UC10"><path d="M915.29,460 C980.06,460 1060.64,460 1122.5,460" fill="none" id="UC3-to-UC10" style="stroke:#181818;stroke-width:1;stroke-dasharray:7.0,7.0;"/><polygon fill="#181818" points="1128.5,460,1119.5,456,1123.5,460,1119.5,464,1128.5,460" style="stroke:#181818;stroke-width:1;"/><text fill="#000000" font-family="sans-serif" font-size="13" lengthAdjust="spacing" textLength="63.0068" x="975.7" y="456.0669">&#171;include&#187;</text></g><!--link UC3 to UC11--><g class="link" data-entity-1="UC3" data-entity-2="UC11" data-source-line="47" data-uid="lnk33" id="link_UC3_UC11"><path d="M890.98,445.73 C950.96,432.66 1034.6975,414.4172 1103.0875,399.5172" fill="none" id="UC3-to-UC11" style="stroke:#181818;stroke-width:1;stroke-dasharray:7.0,7.0;"/><polygon fill="#181818" points="1108.95,398.24,1099.3048,396.2476,1104.0646,399.3044,1101.0078,404.0642,1108.95,398.24" style="stroke:#181818;stroke-width:1;"/><text fill="#000000" font-family="sans-serif" font-size="13" lengthAdjust="spacing" textLength="63.0068" x="975.7" y="410.0669">&#171;include&#187;</text></g><!--link User to UC1--><g class="link" data-entity-1="User" data-entity-2="UC1" data-source-line="51" data-uid="lnk34" id="link_User_UC1"><path d="M210.45,281.51 C214.97,231.93 230.37,146.5 282.61,99 C302.89,80.56 324.6256,71.8907 351.1856,66.8407" fill="none" id="User-to-UC1" style="stroke:#181818;stroke-width:1;"/><polygon fill="#181818" points="357.08,65.72,347.4912,63.4715,352.168,66.6539,348.9856,71.3307,357.08,65.72" style="stroke:#181818;stroke-width:1;"/></g><!--link User to UC14--><g class="link" data-entity-1="User" data-entity-2="UC14" data-source-line="52" data-uid="lnk35" id="link_User_UC14"><path d="M217.36,281.42 C227.27,246.73 246.91,197.04 282.61,169 C306.9,149.93 333.4521,141.621 362.7621,137.371" fill="none" id="User-to-UC14" style="stroke:#181818;stroke-width:1;"/><polygon fill="#181818" points="368.7,136.51,359.2191,133.8429,363.7517,137.2275,360.3672,141.7601,368.7,136.51" style="stroke:#181818;stroke-width:1;"/></g><!--link User to UC15--><g class="link" data-entity-1="User" data-entity-2="UC15" data-source-line="53" data-uid="lnk36" id="link_User_UC15"><path d="M235.31,281.65 C247.95,266.2 264.3,249.57 282.61,239 C309.72,223.36 337.1991,215.6713 366.3991,210.8813" fill="none" id="User-to-UC15" style="stroke:#181818;stroke-width:1;"/><polygon fill="#181818" points="372.32,209.91,362.7912,207.4197,367.3859,210.7194,364.0862,215.3141,372.32,209.91" style="stroke:#181818;stroke-width:1;"/></g><!--link User to UC16--><g class="link" data-entity-1="User" data-entity-2="UC16" data-source-line="54" data-uid="lnk37" id="link_User_UC16"><path d="M244.05,313.47 C278.09,307.2 324.5494,298.6378 366.8594,290.8378" fill="none" id="User-to-UC16" style="stroke:#181818;stroke-width:1;"/><polygon fill="#181818" points="372.76,289.75,363.184,287.448,367.8429,290.6565,364.6343,295.3154,372.76,289.75" style="stroke:#181818;stroke-width:1;"/></g><!--link User to UC17--><g class="link" data-entity-1="User" data-entity-2="UC17" data-source-line="55" data-uid="lnk38" id="link_User_UC17"><path d="M244.05,326.38 C268.85,330.84 297.4646,335.9986 330.7346,341.9786" fill="none" id="User-to-UC17" style="stroke:#181818;stroke-width:1;"/><polygon fill="#181818" points="336.64,343.04,328.4896,337.5109,331.7189,342.1555,327.0743,345.3848,336.64,343.04" style="stroke:#181818;stroke-width:1;"/></g><!--link User to UC21--><g class="link" data-entity-1="User" data-entity-2="UC21" data-source-line="56" data-uid="lnk39" id="link_User_UC21"><path d="M231.99,358.45 C244.8,376.4 262.22,396.51 282.61,409 C308.25,424.71 334.061,432.539 362.441,437.539" fill="none" id="User-to-UC21" style="stroke:#181818;stroke-width:1;"/><polygon fill="#181818" points="368.35,438.58,360.1805,433.0791,363.4258,437.7125,358.7925,440.9578,368.35,438.58" style="stroke:#181818;stroke-width:1;"/></g><!--link User to UC22--><g class="link" data-entity-1="User" data-entity-2="UC22" data-source-line="57" data-uid="lnk40" id="link_User_UC22"><path d="M216.14,358.47 C225.41,395.38 244.8,449.98 282.61,481 C302.84,497.59 323.2444,505.9071 348.6044,511.3671" fill="none" id="User-to-UC22" style="stroke:#181818;stroke-width:1;"/><polygon fill="#181818" points="354.47,512.63,346.5135,506.8253,349.582,511.5776,344.8297,514.6461,354.47,512.63" style="stroke:#181818;stroke-width:1;"/></g><!--link Admin to UC23--><g class="link" data-entity-1="Admin" data-entity-2="UC23" data-source-line="59" data-uid="lnk41" id="link_Admin_UC23"><path d="M110.91,539.63 C178.33,550.91 290.7321,569.7106 366.1521,582.3206" fill="none" id="Admin-to-UC23" style="stroke:#181818;stroke-width:1;"/><polygon fill="#181818" points="372.07,583.31,363.8529,577.8806,367.1385,582.4855,362.5336,585.7711,372.07,583.31" style="stroke:#181818;stroke-width:1;"/></g><!--SRC=[ZPHBRjim48RtEiN0cxIBF6JvaHI10SC5qWBj9aQwPwMnIeIYL3uC16s1NgCtg7CDtwGdwP0M7ScMXMmCZ_vlXfoVGmfS6J0bA9v_Cv1nXQdXfOpq8vSLKwo0YgMFBCUbUH88JcOo5nX5B3MbWWV31TVCe5N0D3neLBKopmekkJPgB_elaV-5y_EVinqTxMl2O5vLWgVCxM00FoA0CxX3xKB8KCEYb0ObLTCaMOqfqvHqjzqeL208IFV0mEzc4JV1XTfk2BJoXQknOHFxN6PynRl1f0akRLKfNdIJeoRvVhifcA9TNiwLsZwRxfHnC-KUiv3KnKwQx1UkBQDZg5qGPHxwd_PWsf3HPEvtYm6_ZhpdvFEAvrQnrpjVbSg4AZSdc7KfRB5VAxuwXJ75sLVtB_lt-m_ADLUbb5YWD24rZevcusD1GzhQtITghYx9lHYoHvr3WJigGEDJ9tt0jGw2RAA1jtIBNa2eK6bgm3bFIuMywN4BIrJh7ejrBOUPZGzMzaVcM7ADfUdsBrLSVWZqy7YznjtLy8RvUrbAyVJsn0PiWmzbartPUnH-M3JGAL7tb0lPMKXm3mgufk7YOkQo0Dx1xIsNgR0PpcOjCUaJHttYk4-Sz8dJFl6wIqngyQPFZA_wnFX0_1L5JIFP6bDlEpsdVYhSQqdlfizj1QDMD6v5arOqRKR3LXKt8E5fzd7o7m00]--></g></svg>